 <svg  version="1.0" xmlns="http://www.w3.org/2000/svg"  width="296.000000pt" height="294.000000pt" viewBox="0 0 296.000000 294.000000"  preserveAspectRatio="xMidYMid meet">  <g transform="translate(0.000000,294.000000) scale(0.100000,-0.100000)" fill="#ffffff" stroke="none"> <path d="M1445 2547 c-34 -19 -61 -23 -180 -27 l-139 -5 -28 -41 c-15 -23 -48 -51 -77 -68 -28 -15 -56 -36 -62 -48 -6 -11 -13 -54 -16 -96 l-6 -76 -60 -64 -60 -64 7 -78 6 -77 -55 -67 c-30 -37 -55 -73 -56 -79 -4 -45 7 -89 32 -134 24 -43 29 -65 29 -117 0 -63 1 -65 39 -95 24 -19 42 -44 46 -61 7 -30 47 -70 71 -70 20 0 44 -41 44 -78 0 -39 34 -75 86 -92 24 -8 40 -23 54 -50 21 -41 60 -60 128 -60 17 0 32 -4 32 -8 0 -41 -129 -297 -172 -341 -36 -37 -139 -90 -395 -206 -214 -96 -254 -121 -289 -180 -22 -39 -114 -248 -114 -261 0 -2 9 -4 20 -4 12 0 20 6 19 13 -2 12 11 50 37 101 8 16 14 35 14 43 0 21 37 83 45 75 4 -4 4 4 0 17 -5 15 -4 21 3 17 6 -3 20 8 32 24 12 17 27 29 33 27 7 -2 20 6 30 17 10 12 15 14 11 6 -6 -12 -4 -12 12 1 29 24 151 78 160 71 4 -4 4 -1 0 6 -5 8 0 12 13 12 12 0 21 5 21 11 0 5 4 8 9 5 5 -3 30 5 55 19 26 14 54 25 62 25 7 0 14 5 14 10 0 6 7 10 15 10 18 0 157 73 182 95 10 9 29 25 43 36 14 11 18 18 10 14 -10 -4 -9 -2 3 8 9 8 17 20 17 26 0 7 5 9 13 5 6 -4 9 -4 5 0 -3 4 4 28 18 53 13 25 24 52 24 60 0 8 5 11 11 8 6 -4 10 -1 8 6 -3 28 1 50 10 45 4 -3 16 20 25 52 14 44 15 63 7 85 -10 25 -15 27 -61 27 -37 0 -49 3 -44 12 5 7 2 9 -9 5 -12 -4 -14 -2 -10 10 4 11 2 14 -5 9 -6 -4 -16 3 -23 16 -18 33 -37 50 -49 43 -5 -3 -10 -2 -10 3 0 5 -13 15 -30 22 -16 7 -27 16 -24 21 3 5 0 9 -7 9 -7 0 -9 3 -6 7 4 3 2 12 -5 20 -6 7 -8 16 -5 20 11 10 -22 61 -43 68 -11 3 -20 11 -20 16 0 5 -6 9 -14 9 -8 0 -24 19 -35 43 -12 24 -34 56 -51 72 -26 25 -30 36 -30 85 0 34 -6 64 -16 78 -8 12 -12 22 -8 22 3 0 1 6 -5 14 -6 7 -17 36 -24 63 -12 46 -12 52 10 87 13 20 30 39 38 43 8 3 15 11 15 18 0 7 5 15 12 17 8 3 14 38 18 99 5 92 22 145 41 134 5 -4 9 0 9 8 0 7 11 20 25 27 13 7 23 16 22 19 0 3 4 22 10 41 6 19 14 62 16 94 4 42 11 65 26 80 12 11 21 15 21 9 0 -7 10 -2 23 10 13 12 35 31 50 41 15 10 27 25 27 32 0 25 41 35 165 39 86 3 133 9 154 19 35 18 91 21 91 5 0 -6 6 -9 14 -6 8 3 16 1 18 -5 5 -14 110 -27 137 -16 45 16 122 16 138 -1 9 -9 22 -16 30 -16 7 0 32 -17 56 -37 41 -34 44 -39 38 -74 -5 -31 -2 -43 16 -63 13 -13 23 -30 23 -38 0 -8 4 -12 9 -8 6 3 14 -3 20 -12 6 -10 11 -14 11 -9 0 13 60 -45 60 -58 0 -5 6 -17 14 -25 8 -9 17 -34 20 -57 14 -91 48 -154 83 -154 8 0 11 -5 7 -12 -5 -8 -2 -9 9 -5 10 3 17 2 17 -3 0 -5 18 -20 40 -33 22 -13 37 -27 33 -32 -5 -4 -3 -5 3 -2 34 19 55 -73 22 -97 -8 -6 -13 -17 -10 -25 3 -8 0 -11 -6 -7 -6 4 -9 -4 -7 -21 1 -15 8 -29 14 -31 9 -3 9 -8 0 -18 -7 -8 -9 -17 -5 -21 3 -3 6 -1 6 5 0 7 5 12 10 12 16 0 28 -42 20 -65 -9 -24 11 -70 25 -58 5 4 -2 -7 -14 -25 -13 -18 -29 -31 -35 -29 -9 4 -11 -13 -8 -64 5 -76 -9 -123 -39 -140 -11 -5 -68 -13 -128 -18 -130 -9 -155 -24 -166 -99 -2 -15 -11 -72 -20 -127 -9 -55 -19 -122 -21 -150 -2 -27 -8 -80 -12 -117 -5 -41 -5 -74 2 -85 16 -30 69 -83 80 -82 24 3 37 -2 31 -11 -3 -5 0 -11 7 -11 7 -1 18 -2 23 -3 10 -1 151 -50 195 -68 14 -5 26 -10 27 -9 2 0 34 -11 73 -25 39 -13 93 -29 120 -35 31 -7 48 -15 44 -21 -4 -6 -3 -8 3 -5 11 7 83 -39 83 -53 0 -5 13 -22 28 -39 29 -33 55 -126 68 -248 4 -44 10 -63 20 -63 17 0 17 -8 -1 116 -19 132 -47 207 -99 258 -48 48 -72 59 -266 121 -217 69 -351 122 -383 153 l-29 27 5 105 c7 116 52 407 67 425 5 6 28 12 52 13 171 7 201 13 235 47 32 32 33 36 33 113 0 74 2 81 25 96 30 20 32 43 4 72 l-21 22 22 29 c23 32 19 63 -10 63 -9 0 -25 9 -35 20 -17 18 -16 21 14 62 54 74 44 93 -107 200 l-80 57 -22 95 c-18 82 -26 99 -53 122 -18 14 -53 46 -78 69 -45 43 -46 45 -41 93 4 49 4 50 -39 79 -24 17 -68 43 -97 58 l-53 28 -87 -18 -87 -18 -69 32 c-38 17 -69 31 -70 31 0 -1 -19 -11 -41 -23z"/> <path d="M1351 2064 c-17 -14 -29 -30 -25 -35 10 -17 -18 -9 -49 14 -26 18 -45 22 -102 22 -86 -1 -92 -2 -132 -42 -37 -36 -48 -69 -39 -116 6 -31 48 -100 57 -94 2 1 -8 -8 -23 -20 -26 -23 -59 -91 -36 -77 7 5 9 2 6 -8 -13 -32 89 -87 159 -88 46 0 123 26 123 42 0 5 5 6 10 3 6 -3 10 -1 10 6 0 7 13 1 28 -14 20 -19 39 -27 65 -27 49 0 66 28 71 114 5 100 22 104 28 6 3 -44 10 -86 16 -92 8 -8 -1 -23 -35 -54 -25 -24 -42 -44 -37 -44 5 0 3 -4 -3 -8 -7 -4 -23 -29 -36 -55 -13 -26 -28 -43 -32 -39 -5 4 -5 2 -1 -5 4 -7 0 -29 -9 -49 -17 -42 -20 -120 -4 -129 6 -4 8 -14 5 -22 -3 -8 -1 -11 4 -8 10 6 15 -9 10 -30 -1 -5 -3 -18 -5 -28 -2 -9 -6 -21 -10 -26 -3 -5 -1 -12 5 -16 6 -4 8 -11 5 -16 -4 -5 -1 -9 5 -9 6 0 8 -5 4 -11 -4 -8 -1 -8 12 -1 11 5 28 7 39 5 36 -8 310 -9 326 -1 9 4 19 5 23 1 8 -8 122 -7 136 2 15 9 12 61 -4 74 -18 15 -106 20 -99 6 2 -5 -2 -2 -9 7 -9 11 -19 14 -28 8 -8 -5 -22 -4 -33 2 -14 7 -17 7 -13 -1 10 -16 -44 -10 -72 7 -20 13 -22 13 -16 -2 3 -9 10 -16 15 -16 5 0 9 -17 9 -39 0 -33 -3 -38 -22 -37 -32 1 -38 43 -8 54 20 7 20 9 6 21 -9 8 -16 10 -16 5 0 -5 -27 -7 -60 -6 -33 2 -60 7 -60 10 0 3 11 17 25 32 20 21 31 25 70 22 25 -2 43 -7 40 -12 -2 -4 7 -6 20 -4 14 1 25 -2 25 -7 0 -12 68 30 80 50 5 9 10 11 10 4 0 -7 5 -13 11 -13 5 0 7 6 3 13 -4 6 2 4 13 -5 11 -10 26 -18 34 -18 9 0 25 -9 38 -21 41 -38 91 -3 96 66 1 17 5 37 10 44 4 8 11 27 16 45 4 17 17 57 29 88 l21 57 -22 25 c-25 29 -51 33 -69 11 -7 -8 -17 -12 -24 -8 -6 3 -8 3 -4 -2 4 -4 2 -15 -5 -23 -10 -13 -9 -14 3 -7 12 7 13 6 3 -6 -7 -9 -13 -30 -15 -47 -3 -37 -23 -49 -45 -26 -9 8 -24 13 -34 11 -11 -3 -22 -1 -25 4 -9 15 -32 10 -61 -15 -25 -22 -30 -23 -65 -10 -21 7 -42 13 -46 14 -4 0 -16 3 -26 6 -17 6 -18 7 -3 16 22 12 22 71 0 105 -17 25 -17 27 5 41 12 8 22 21 22 28 0 8 5 14 11 14 5 0 7 5 4 10 -3 6 -2 10 2 10 5 0 14 -9 21 -20 29 -46 134 -74 194 -51 57 22 102 105 68 126 -7 4 -4 13 8 23 26 24 16 107 -18 148 -62 73 -190 72 -255 -4 l-22 -25 -36 39 c-30 33 -43 40 -78 43 -51 3 -69 15 -69 46 0 26 -43 65 -71 65 -9 0 -31 -12 -48 -26z m85 -89 c-5 -50 -3 -75 4 -75 5 0 10 5 10 11 0 16 62 38 92 32 56 -11 67 -37 69 -163 l2 -115 -37 -3 -36 -3 0 106 c0 102 -1 106 -25 117 -19 9 -29 8 -50 -6 -27 -18 -27 -20 -26 -138 l1 -78 -37 0 -38 0 0 195 0 195 39 0 39 0 -7 -75z m-176 40 c35 -18 36 -25 12 -56 -18 -21 -20 -22 -43 -6 -27 20 -90 22 -107 5 -32 -32 -8 -61 63 -73 62 -12 95 -33 112 -73 21 -50 4 -106 -40 -132 -43 -27 -125 -26 -178 0 -49 26 -56 42 -32 73 l19 24 27 -23 c53 -45 129 -43 135 4 5 34 -13 50 -76 63 -72 15 -112 52 -112 104 0 46 13 71 48 89 36 20 135 20 172 1z m68 -100 c2 -50 -8 -56 -47 -29 l-23 16 29 28 c15 15 30 28 33 29 3 1 7 -19 8 -44z m546 14 c31 -15 58 -70 54 -111 l-3 -32 -93 3 -94 3 7 -24 c4 -12 14 -29 23 -35 22 -18 72 -16 92 2 14 13 22 14 43 4 21 -10 24 -15 16 -30 -27 -51 -132 -65 -190 -26 -69 46 -76 162 -14 224 29 29 40 33 84 33 27 0 61 -5 75 -11z m-286 -361 c13 -29 4 -63 -22 -80 -27 -19 -35 -7 -16 25 46 74 5 79 -45 5 -61 -93 -104 -235 -75 -253 17 -11 70 25 97 66 29 44 43 37 23 -12 -14 -34 -74 -89 -96 -89 -22 0 -74 55 -74 78 0 63 66 208 123 270 28 31 68 26 85 -10z m422 -9 c0 -28 -72 -239 -82 -239 -6 0 -8 10 -5 23 3 12 15 68 28 125 18 84 26 102 41 102 10 0 18 -5 18 -11z m-455 -109 c-5 9 -1 10 15 5 15 -5 20 -4 16 4 -5 7 2 11 16 11 22 0 21 -2 -11 -30 -18 -16 -38 -27 -45 -23 -6 4 -5 0 2 -9 11 -14 10 -17 -5 -22 -10 -3 -31 -18 -46 -32 -16 -14 -30 -24 -33 -21 -3 2 4 27 14 55 11 28 17 53 14 56 -3 4 2 6 12 6 11 0 14 4 9 13 -4 6 6 4 21 -7 16 -10 25 -13 21 -6z m248 3 c4 -3 1 -16 -6 -27 -17 -27 -28 -68 -16 -60 11 6 11 2 3 -20 -3 -9 -11 -16 -17 -16 -6 0 -23 -15 -38 -32 -23 -28 -30 -31 -46 -22 -13 9 -17 22 -16 49 l3 37 -23 -33 c-12 -19 -33 -35 -45 -37 -19 -3 -22 1 -22 35 0 68 58 136 85 100 7 -11 19 -14 35 -10 21 6 22 4 16 -23 -4 -16 -10 -45 -12 -64 l-5 -35 25 30 c14 17 26 37 26 46 0 23 29 89 38 89 5 0 12 -3 15 -7z m62 -14 c4 -6 -3 -30 -16 -54 -30 -57 -18 -68 26 -25 44 43 46 26 3 -24 -25 -28 -38 -36 -51 -30 -15 5 -18 15 -15 45 3 29 1 35 -9 27 -21 -17 -15 1 13 38 28 36 39 41 49 23z m75 -140 c0 -23 -21 -48 -35 -43 -19 8 -19 19 1 38 18 18 34 21 34 5z m-500 -109 c0 -5 -8 -10 -17 -10 -16 0 -16 -2 -3 -11 11 -8 12 -12 3 -16 -7 -2 -13 -11 -13 -19 0 -8 -4 -14 -10 -14 -5 0 -10 18 -10 40 0 36 3 40 25 40 14 0 25 -4 25 -10z m325 -38 c2 -20 -1 -32 -8 -29 -13 4 -28 53 -19 62 13 12 25 -2 27 -33z m-277 1 c-4 -34 -33 -43 -43 -14 -8 27 1 41 26 41 16 0 20 -6 17 -27z m33 5 l2 -23 4 23 c6 32 23 27 23 -7 0 -23 -4 -28 -22 -27 -17 1 -24 8 -26 29 -2 15 1 27 7 27 6 0 12 -10 12 -22z m89 -9 c0 -19 -4 -28 -11 -24 -6 4 -8 13 -5 21 3 7 1 16 -4 19 -6 4 -10 -6 -10 -20 0 -15 -4 -24 -10 -20 -5 3 -10 17 -10 31 0 19 5 24 25 24 21 0 25 -5 25 -31z m117 0 c1 -21 -3 -26 -20 -25 -21 1 -31 27 -19 49 9 18 37 0 39 -24z m123 7 c0 -32 -18 -43 -37 -23 -20 20 -10 47 17 47 15 0 20 -7 20 -24z m60 17 c0 -5 3 -18 6 -30 4 -14 2 -23 -5 -23 -6 0 -11 9 -11 20 0 11 -5 20 -11 20 -7 0 -9 -10 -7 -24 4 -17 1 -23 -9 -19 -7 3 -13 18 -13 34 0 24 4 29 25 29 14 0 25 -3 25 -7z"/> <path d="M1774 1882 c-6 -4 -16 -17 -23 -29 -12 -23 -11 -23 49 -23 45 0 60 3 60 14 0 34 -55 59 -86 38z"/> <path d="M1637 1400 c-21 -33 -34 -85 -19 -76 25 15 49 61 42 81 -6 18 -8 18 -23 -5z"/> <path d="M1502 168 c-17 -17 -261 -21 -280 -5 -15 12 -81 -7 -94 -27 -5 -8 -11 -7 -20 2 -13 13 -228 18 -228 5 0 -5 7 -17 15 -27 11 -14 15 -16 15 -5 0 12 2 12 10 -1 6 -10 10 -11 10 -2 0 6 5 12 11 12 6 0 8 -9 3 -22 -9 -32 -14 -35 -24 -18 -7 10 -10 11 -10 3 0 -25 -19 -12 -25 17 -8 39 -25 39 -25 0 0 -60 -15 -58 650 -59 333 0 612 -2 620 -6 27 -10 63 1 70 21 10 27 3 76 -12 85 -19 13 -146 11 -170 -2 -15 -8 -22 -8 -28 1 -4 6 -31 13 -61 15 -30 1 -56 4 -59 5 -9 3 -143 -1 -208 -7 -72 -6 -155 4 -147 18 9 13 1 11 -13 -3z m-276 -48 c9 0 14 -10 13 -27 -2 -24 -2 -25 -6 -5 -2 12 -9 22 -14 22 -5 0 -10 -10 -10 -22 -1 -15 -4 -10 -8 12 -4 19 -5 40 -2 45 3 6 7 2 9 -7 2 -10 10 -18 18 -18z m287 18 c-9 -15 -10 -20 -12 -48 0 -11 -5 -20 -10 -20 -10 0 -9 50 2 68 5 6 13 12 18 12 6 0 7 -6 2 -12z m230 -35 c-7 -42 -43 -48 -43 -8 0 16 6 25 15 25 8 0 15 8 15 17 0 10 3 13 9 8 5 -6 7 -25 4 -42z m125 3 c2 -20 -2 -36 -8 -36 -5 0 -10 18 -10 41 0 49 15 45 18 -5z m-34 -5 c1 -19 -2 -30 -8 -28 -14 5 -20 33 -12 54 9 22 17 10 20 -26z m-734 12 c0 -10 -5 -25 -10 -33 -9 -13 -11 -13 -20 0 -6 10 -10 11 -10 3 0 -21 -17 -15 -25 10 l-8 22 -4 -22 c-4 -23 -23 -32 -23 -12 0 8 -4 9 -13 0 -17 -13 -27 -5 -27 23 0 16 2 18 9 7 7 -11 9 -11 14 0 4 12 7 11 16 -1 7 -10 11 -11 11 -2 0 6 9 12 20 12 11 0 20 -6 20 -12 0 -9 4 -8 10 2 5 8 10 11 10 6 0 -6 5 -5 12 2 16 16 18 15 18 -5z m82 -18 c2 -14 -3 -21 -19 -23 -17 -3 -22 1 -20 20 2 43 32 45 39 3z m118 -1 c0 -17 -6 -24 -19 -24 -23 0 -32 19 -19 42 12 24 38 11 38 -18z m51 19 c12 -15 12 -16 -3 -10 -12 4 -18 2 -18 -7 0 -21 37 -8 43 15 7 27 37 13 37 -16 0 -21 -4 -23 -46 -22 -49 0 -65 16 -44 42 15 19 15 19 31 -2z m216 -27 c-8 -20 -36 -21 -43 -1 -4 8 0 22 7 31 11 13 14 13 27 0 8 -8 12 -22 9 -30z m118 7 c4 -14 2 -23 -4 -23 -6 0 -11 9 -11 21 0 11 -4 18 -10 14 -5 -3 -7 -12 -3 -20 3 -8 0 -15 -6 -15 -15 0 -14 47 2 53 15 6 23 -2 32 -30z m115 1 c0 -17 -6 -24 -19 -24 -25 0 -31 10 -20 37 11 29 39 20 39 -13z m127 -8 c-4 -9 -16 -16 -27 -16 -15 0 -20 7 -20 24 0 13 6 26 13 29 18 7 41 -19 34 -37z m63 3 c0 -11 -4 -19 -10 -19 -5 0 -10 9 -10 21 0 12 -4 17 -11 14 -6 -4 -8 -13 -5 -21 3 -8 1 -14 -4 -14 -15 0 -12 48 3 53 17 6 37 -12 37 -34z m87 -3 c-4 -9 -16 -16 -27 -16 -15 0 -20 7 -20 24 0 13 6 26 13 29 18 7 41 -19 34 -37z m36 12 c-3 -16 -9 -28 -14 -28 -14 0 -11 48 4 53 16 6 16 6 10 -25z m65 -12 c-2 -23 -8 -32 -25 -34 -20 -3 -23 1 -23 31 0 40 5 46 31 40 16 -4 19 -13 17 -37z m-708 9 c0 -31 -19 -33 -21 -2 l-2 22 -4 -22 c-6 -31 -23 -29 -23 2 0 20 5 25 25 25 20 0 25 -5 25 -25z m131 3 l2 -23 4 23 c6 30 23 28 23 -3 0 -20 -5 -25 -25 -25 -20 0 -25 5 -25 25 0 31 19 33 21 3z"/> </g> </svg> 